<svg aria-hidden="true" style="position:absolute;width:0;height:0;overflow:hidden" xmlns="http://www.w3.org/2000/svg"><defs><symbol id="icon-arrow-left" viewBox="0 0 75 32"><path d="M74.667 10.667v10.667H16v10.667l-16-16 16-16v10.667h58.667z"/></symbol><symbol id="icon-arrow-right" viewBox="0 0 75 32"><path d="M0 21.333V10.666h58.667V-.001l16 16-16 16V21.332H0z"/></symbol><symbol id="icon-bowls-and-cups" viewBox="0 0 32 32"><path d="M31.992 21.256 30.467 11.01c-.025-2.975-1.831-5.734-4.965-7.577C22.906 1.907 19.531 1.066 16 1.066s-6.906.841-9.502 2.367c-3.134 1.843-4.94 4.602-4.965 7.577L.008 21.256a.76.76 0 0 0-.008.107c0 3.013 2.008 5.803 5.508 7.654C8.374 30.533 12.1 31.368 16 31.368s7.626-.835 10.492-2.351C29.993 27.165 32 24.375 32 21.363a.76.76 0 0 0-.008-.107zM7.236 4.688C9.612 3.291 12.724 2.522 16 2.522s6.389.769 8.764 2.166c2.7 1.587 4.249 3.914 4.249 6.384s-1.549 4.797-4.248 6.384c-2.376 1.397-5.488 2.166-8.764 2.166s-6.389-.769-8.764-2.166c-2.7-1.587-4.249-3.914-4.249-6.384s1.549-4.797 4.249-6.384zm18.575 23.043c-2.66 1.407-6.144 2.182-9.811 2.182s-7.151-.775-9.811-2.182c-2.987-1.58-4.709-3.88-4.733-6.316l1.002-6.73c.835 1.561 2.211 2.95 4.041 4.025 2.596 1.526 5.971 2.367 9.502 2.367s6.906-.841 9.502-2.367c1.83-1.076 3.206-2.464 4.041-4.025l1.002 6.73c-.024 2.436-1.747 4.736-4.733 6.316z"/><path d="M16 18.166c4.988 0 9.391-1.93 10.954-4.803a4.75 4.75 0 0 0 .603-2.292c0-1.969-1.254-3.791-3.531-5.129-2.156-1.267-5.006-1.965-8.027-1.965s-5.871.698-8.027 1.965c-2.277 1.339-3.531 3.16-3.531 5.129 0 .787.203 1.558.603 2.291 1.564 2.873 5.966 4.803 10.955 4.803zm0-1.455c-4.184 0-7.985-1.503-9.464-3.697C8.015 10.821 11.817 9.319 16 9.319s7.985 1.502 9.464 3.695c-1.478 2.194-5.279 3.697-9.464 3.697zM5.898 11.072c0-1.432.999-2.808 2.813-3.875C10.646 6.059 13.235 5.433 16 5.433s5.354.627 7.289 1.764c1.814 1.066 2.813 2.442 2.813 3.875 0 .128-.009.255-.025.382-2.007-2.19-5.829-3.59-10.078-3.59s-8.071 1.4-10.078 3.59a3.252 3.252 0 0 1-.025-.382zM16 22.277a.721.721 0 0 0-.526.226c-.474.497-2.02 2.21-2.02 3.413 0 1.404 1.142 2.547 2.547 2.547s2.547-1.142 2.547-2.547c0-1.203-1.546-2.916-2.02-3.413a.741.741 0 0 0-.526-.226zm0 4.73c-.602 0-1.091-.49-1.091-1.091 0-.323.508-1.104 1.091-1.812.584.709 1.091 1.489 1.091 1.812 0 .602-.49 1.091-1.091 1.091z"/><path d="M12.738 12.745h-.224a.728.728 0 0 0 0 1.456h.224a.728.728 0 0 0 0-1.456zm8.635 0h-5.19a.728.728 0 0 0 0 1.456h5.19a.728.728 0 0 0 0-1.456z"/></symbol><symbol id="icon-burger" viewBox="0 0 48 32"><path d="M0 5.333V0h48v5.333H0zm0 13.334h48v-5.333H0v5.333zM0 32h48v-5.333H0V32z"/></symbol><symbol id="icon-collars-leashes" viewBox="0 0 32 32"><path d="M30.558 5.467c-.832-.669-2.004-1.264-3.485-1.768-2.967-1.01-6.9-1.566-11.073-1.566s-8.106.556-11.073 1.566c-1.481.504-2.654 1.099-3.486 1.768C.485 6.237 0 7.086 0 7.991v6.995c0 .905.485 1.754 1.441 2.524.832.669 2.004 1.264 3.486 1.768 2.818.959 6.508 1.509 10.448 1.561v2.508H13.22a2.731 2.731 0 0 0-2.679-2.219 2.73 2.73 0 0 0-2.085 4.485 2.73 2.73 0 0 0 2.085 4.485 2.73 2.73 0 0 0 2.679-2.219h5.561a2.731 2.731 0 0 0 2.679 2.219 2.73 2.73 0 0 0 2.085-4.485 2.73 2.73 0 0 0-2.085-4.485 2.73 2.73 0 0 0-2.679 2.219h-2.155v-2.508c3.94-.053 7.63-.602 10.448-1.561 1.481-.504 2.654-1.099 3.486-1.768.956-.77 1.441-1.619 1.441-2.524V7.991c0-.905-.485-1.754-1.442-2.524zm-11.197 19.13a.617.617 0 0 0 .454-.196.63.63 0 0 0 .17-.465c-.002-.027-.002-.055-.002-.082 0-.814.663-1.477 1.477-1.477s1.477.663 1.477 1.477c0 .499-.25.961-.668 1.236a.63.63 0 0 0 0 1.046c.419.275.668.737.668 1.236 0 .814-.663 1.477-1.477 1.477s-1.477-.663-1.477-1.477l.002-.082a.626.626 0 0 0-.624-.66h-6.723a.617.617 0 0 0-.454.196.636.636 0 0 0-.17.464l.002.082c0 .814-.663 1.477-1.477 1.477s-1.477-.663-1.477-1.477c0-.499.25-.961.668-1.236a.63.63 0 0 0 0-1.046 1.476 1.476 0 1 1 2.286-1.236l-.002.082a.626.626 0 0 0 .624.661h6.723zM16 19.594c-.83 0-1.505-.675-1.505-1.505s.675-1.505 1.505-1.505c.83 0 1.505.675 1.505 1.505S16.83 19.594 16 19.594zm14.75-4.608c0 1.978-4.987 4.16-12.405 4.547a2.731 2.731 0 0 0 .349-2.019c2.426-.159 4.679-.521 6.558-1.057a.624.624 0 1 0-.342-1.201c-1.929.55-4.281.909-6.819 1.043a2.748 2.748 0 0 0-4.19.01 35.648 35.648 0 0 1-4.86-.549.625.625 0 1 0-.231 1.229c1.404.264 2.912.445 4.493.54a2.735 2.735 0 0 0 .353 2.007c-7.418-.387-12.405-2.57-12.405-4.547v-4.632l.008.007a5.292 5.292 0 0 0 .438.347l.001.001c.047.034.094.068.143.101l.022.015c.046.031.092.063.139.093l.029.019.145.092.021.013c.739.457 1.653.872 2.731 1.239 2.967 1.01 6.899 1.566 11.073 1.566s8.106-.556 11.073-1.566c1.078-.367 1.992-.782 2.731-1.239l.021-.013.145-.093.029-.019.139-.093.022-.015.143-.101.001-.001a7.116 7.116 0 0 0 .438-.347l.009-.007v4.632zM4.016 10.589a15.565 15.565 0 0 1 2.279-.812c2.69-.754 6.136-1.169 9.705-1.169s7.016.415 9.705 1.169c.99.277 1.735.563 2.279.812-2.587 1.153-6.82 2.01-11.984 2.01s-9.398-.857-11.984-2.01zm26.73-2.507a1.349 1.349 0 0 1-.013.109l-.001.006a1.55 1.55 0 0 1-.049.195l-.005.016a1.496 1.496 0 0 1-.113.253l-.004.008c-.26.469-.751.88-1.239 1.2-.647-.373-1.686-.849-3.279-1.296C23.247 7.789 19.68 7.357 16 7.357s-7.246.432-10.043 1.216c-1.593.447-2.632.923-3.279 1.296-.487-.32-.978-.731-1.238-1.2l-.004-.008c-.016-.03-.032-.06-.046-.09l-.021-.045-.016-.038a1.07 1.07 0 0 1-.03-.079l-.005-.016a1.777 1.777 0 0 1-.03-.104c-.008-.03-.014-.061-.02-.092l-.001-.006a1.297 1.297 0 0 1-.013-.109c-.002-.031-.004-.061-.004-.092 0-2.179 6.058-4.608 14.75-4.608S30.75 5.81 30.75 7.99c0 .03-.002.061-.004.092z"/><path d="M25.694 6.21a.63.63 0 0 0-.266-.397.635.635 0 0 0-.469-.093.608.608 0 0 0-.224.094.543.543 0 0 0-.173.172.635.635 0 0 0-.093.469.635.635 0 0 0 .266.397.653.653 0 0 0 .224.094.562.562 0 0 0 .244 0 .608.608 0 0 0 .225-.094.598.598 0 0 0 .173-.172.635.635 0 0 0 .093-.469zm-2.503-.951c-2.153-.405-4.604-.619-7.088-.619-3.437 0-6.76.408-9.356 1.149a.624.624 0 1 0 .344 1.202c2.488-.71 5.689-1.101 9.013-1.101 2.407 0 4.778.207 6.857.598a.625.625 0 1 0 .231-1.229zM7.531 15.791a.608.608 0 0 0-.093-.224.646.646 0 0 0-.173-.173.618.618 0 0 0-.225-.093.626.626 0 0 0-.47 1.132c.034.023.07.042.108.057a.587.587 0 0 0 .239.048.623.623 0 0 0 .578-.386.615.615 0 0 0 .036-.361z"/></symbol><symbol id="icon-credit-card" viewBox="0 0 42 32"><path d="M36.148 32H5.592C2.508 32 0 29.502 0 26.435V5.565C0 2.496 2.508 0 5.592 0h30.555c3.082 0 5.592 2.496 5.592 5.565v20.87C41.74 29.503 39.231 32 36.148 32zM5.592 1.59c-2.203 0-3.994 1.782-3.994 3.975v20.87c0 2.192 1.791 3.975 3.994 3.975h30.555c2.202 0 3.994-1.783 3.994-3.975V5.565c0-2.193-1.792-3.975-3.994-3.975H5.592zm23.213 3.085c1.993 0 3.609 1.607 3.609 3.592s-1.615 3.593-3.609 3.593-3.609-1.608-3.609-3.593 1.616-3.592 3.609-3.592zm5.032 0c1.993 0 3.61 1.607 3.61 3.592s-1.616 3.593-3.61 3.593c-1.994 0-3.609-1.608-3.609-3.593s1.616-3.592 3.609-3.592zM4.294 22.725h6.654v2.385H4.294v-2.385zm8.833 0h6.654v2.385h-6.654v-2.385zm8.831 0h6.656v2.385h-6.656v-2.385zm8.832 0h6.656v2.385H30.79v-2.385zM4.294 4.675h12.578V7.06H4.294V4.675zm0 4.733h6.655v2.385H4.294V9.408z"/></symbol><symbol id="icon-mail" viewBox="0 0 40 32"><path d="M39.315 3H.685c-.182 0-.356.073-.484.204S0 3.511 0 3.696v24.61c0 .184.072.361.201.492s.303.204.484.204h38.63c.182 0 .356-.073.484-.204s.201-.307.201-.492V3.696c0-.184-.072-.361-.201-.492S39.496 3 39.315 3zm-6.738 15.033c.107.493.218 1.002.074 1.255-.155.271-.655.429-1.138.582-.381.12-.776.245-1.127.451-.34.199-.633.479-.917.749-.391.372-.76.724-1.094.724s-.703-.352-1.094-.724c-.284-.27-.578-.55-.918-.749-.352-.206-.746-.331-1.127-.451-.483-.153-.983-.31-1.138-.582-.144-.253-.033-.762.074-1.255.088-.405.179-.823.179-1.251s-.091-.847-.179-1.251c-.107-.493-.218-1.002-.074-1.255.155-.271.655-.429 1.138-.582.381-.12.776-.245 1.127-.451.34-.2.633-.479.918-.749.391-.372.76-.724 1.094-.724s.703.351 1.094.724c.284.27.578.55.917.749.352.206.746.331 1.127.451.483.153.983.31 1.138.582.144.253.033.762-.074 1.255-.088.405-.179.823-.179 1.251s.091.847.179 1.251zm-1.979-6.372a15.082 15.082 0 0 1-.192-.181c-.515-.49-1.156-1.1-2.031-1.1s-1.517.61-2.031 1.1c-.238.227-.463.441-.666.56-.219.128-.524.225-.848.327-.701.221-1.494.472-1.917 1.213-.411.721-.234 1.534-.078 2.251.075.347.147.675.147.951s-.071.605-.147.951c-.135.622-.285 1.316-.055 1.959l-2.778 2.853L2.327 4.389h35.35l-7.077 7.27zM11.701 16 1.37 26.612V5.389l10.331 10.612zm.963.989 6.849 7.035a.71.71 0 0 0 .223.153.663.663 0 0 0 .528 0 .673.673 0 0 0 .223-.153l3.197-3.284c.36.21.765.338 1.144.458.324.102.629.199.848.327.203.119.428.334.666.56.515.49 1.156 1.1 2.031 1.1s1.516-.61 2.031-1.1c.238-.227.463-.441.666-.56.133-.078.297-.144.478-.206l6.125 6.291H2.322l10.339-10.62zm20.302 3.806c.345-.184.656-.433.871-.81.411-.721.234-1.534.078-2.251-.075-.347-.147-.675-.147-.951s.071-.604.147-.951c.156-.717.333-1.53-.078-2.251-.423-.742-1.217-.992-1.917-1.213l-.064-.02 6.774-6.959v21.225l-5.664-5.818z"/><path d="M28.374 13.242c-1.923 0-3.488 1.588-3.488 3.54s1.564 3.54 3.488 3.54 3.487-1.588 3.487-3.54-1.564-3.54-3.487-3.54zm0 5.689c-1.168 0-2.118-.964-2.118-2.149s.95-2.149 2.118-2.149 2.117.964 2.117 2.149-.95 2.149-2.117 2.149z"/></symbol><symbol id="icon-marker" viewBox="0 0 22 32"><path d="M11 0C4.935 0 0 4.785 0 10.667c0 1.766.455 3.516 1.321 5.069l9.078 15.921c.121.212.351.344.601.344s.481-.131.601-.344l9.081-15.926a10.428 10.428 0 0 0 1.317-5.064c0-5.881-4.935-10.667-11-10.667zm8.476 15.091L11 29.956 2.527 15.097a9.122 9.122 0 0 1-1.152-4.43c0-5.146 4.318-9.333 9.625-9.333s9.625 4.187 9.625 9.333a9.112 9.112 0 0 1-1.149 4.424z"/><path d="M11 5.333c-3.033 0-5.5 2.393-5.5 5.333s2.467 5.333 5.5 5.333 5.5-2.393 5.5-5.333-2.467-5.333-5.5-5.333zm0 9.334c-2.275 0-4.125-1.794-4.125-4s1.85-4 4.125-4 4.125 1.794 4.125 4-1.85 4-4.125 4z"/></symbol><symbol id="icon-medicines" viewBox="0 0 32 32"><path d="M31.817 8.479 23.521.183a.625.625 0 0 0-.884 0l-2.209 2.209a.625.625 0 0 0 0 .884l2.625 2.625-2.485 2.485-3.825-3.825a.625.625 0 0 0-.884 0l-2.538 2.538a.625.625 0 0 0 0 .884l.806.806L3.768 19.148a2.444 2.444 0 0 0 0 3.453l.795.795-1.458 1.458a.617.617 0 0 0-.183.442.633.633 0 0 0 .183.442l1.136 1.136-4.058 4.058a.625.625 0 0 0 .884.884l4.059-4.059 1.136 1.136a.625.625 0 0 0 .884 0l1.458-1.458.795.795c.461.461 1.074.715 1.726.715s1.265-.254 1.726-.715L23.21 17.871l.806.806a.635.635 0 0 0 .442.183c.16 0 .32-.061.442-.183l2.538-2.538a.625.625 0 0 0 0-.884l-3.825-3.825 2.485-2.485 2.625 2.624a.635.635 0 0 0 .442.183c.16 0 .32-.061.442-.183l2.209-2.209a.625.625 0 0 0 0-.884zm-18.625 3.012 2.892 2.892a.635.635 0 0 0 .442.183.625.625 0 0 0 .442-1.067l-2.892-2.892.935-.935 5.381 5.381-2.858 2.858-5.381-5.381 1.04-1.04zM6.704 27.569l-2.273-2.273 1.016-1.016 2.273 2.273-1.016 1.016zm5.264-.221a1.192 1.192 0 0 1-1.685 0l-5.631-5.631a1.192 1.192 0 0 1 0-1.685l.89-.89 1.539 1.539a.623.623 0 0 0 .884 0 .625.625 0 0 0 0-.884l-1.539-1.539 1.029-1.029 2.892 2.892a.623.623 0 0 0 .884 0 .625.625 0 0 0 0-.884l-2.892-2.892 1.029-1.029 1.539 1.539a.623.623 0 0 0 .884 0 .625.625 0 0 0 0-.884l-1.539-1.539 1.017-1.017 5.381 5.381-4.064 4.064a.625.625 0 0 0 .884.884l4.064-4.064 1.052 1.052-6.616 6.617zm7.501-7.501-1.052-1.052 2.858-2.858 1.052 1.052-2.858 2.858zm6.644-4.148-1.654 1.654-9.812-9.812 1.654-1.654 9.812 9.812zm-3.383-5.15L21.451 9.27l2.485-2.485 1.279 1.279-2.485 2.485zm6.436-.302-7.412-7.412 1.325-1.325 7.412 7.412-1.325 1.325z"/><path d="M11.902 24.918a.608.608 0 0 0-.093-.225.646.646 0 0 0-.281-.231.626.626 0 1 0 .374.456z"/></symbol><symbol id="icon-pet-food" viewBox="0 0 32 32"><path d="m28.212 13.599-3.069-8.4V.762A.762.762 0 0 0 24.381 0H7.619a.762.762 0 0 0-.762.762v4.437l-3.069 8.4a9.043 9.043 0 0 0-.55 3.106v12.669A2.629 2.629 0 0 0 5.864 32h20.272a2.629 2.629 0 0 0 2.626-2.626V16.705a9.015 9.015 0 0 0-.55-3.106zM8.381 1.524h15.238v3.048H8.381V1.524zm18.857 25.213H16.484a.762.762 0 1 0 0 1.524h10.754v1.113c0 .608-.494 1.102-1.102 1.102H5.864a1.103 1.103 0 0 1-1.102-1.102V16.705c0-.881.154-1.756.457-2.583l2.933-8.026h15.696l2.933 8.026a7.49 7.49 0 0 1 .457 2.583v10.032z"/><path d="M18.996 18.029c-.249-1.562-1.605-2.759-3.235-2.759s-2.987 1.197-3.235 2.759a3.295 3.295 0 0 0-2.024 3.286 3.29 3.29 0 0 0 3.018 3.013 3.278 3.278 0 0 0 1.774-.367.99.99 0 0 1 .934 0 3.277 3.277 0 0 0 1.774.368 3.29 3.29 0 0 0 3.018-3.013 3.293 3.293 0 0 0-2.023-3.286zM19.5 21.2a1.756 1.756 0 0 1-2.562 1.412 2.518 2.518 0 0 0-2.356 0 1.746 1.746 0 0 1-.95.196A1.757 1.757 0 0 1 12.02 21.2a1.76 1.76 0 0 1 1.383-1.853.766.766 0 0 0 .605-.762l-.001-.039c0-.966.786-1.752 1.752-1.752s1.752.786 1.752 1.75l-.001.041a.764.764 0 0 0 .605.762c.855.18 1.45.977 1.384 1.853zm-3.74-7.453c1.365 0 2.476-1.111 2.476-2.476s-1.111-2.476-2.476-2.476-2.476 1.111-2.476 2.476 1.111 2.476 2.476 2.476zm0-3.429a.953.953 0 0 1 0 1.904.953.953 0 0 1 0-1.904zm-2.857 3.899c0-1.365-1.111-2.476-2.476-2.476s-2.476 1.111-2.476 2.476 1.111 2.476 2.476 2.476 2.476-1.111 2.476-2.476zm-2.476.952a.953.953 0 0 1 0-1.904.953.953 0 0 1 0 1.904zm10.667-3.429c-1.365 0-2.476 1.111-2.476 2.476s1.111 2.476 2.476 2.476 2.476-1.111 2.476-2.476-1.111-2.476-2.476-2.476zm0 3.429a.953.953 0 0 1 0-1.904.953.953 0 0 1 0 1.904zM13.17 26.737h-.185a.762.762 0 1 0 0 1.524h.185a.762.762 0 1 0 0-1.524z"/></symbol><symbol id="icon-phone" viewBox="0 0 40 32"><path d="M39.946 8.895 37.51 2.904a.717.717 0 0 0-.472-.419l-2.928-.778C25.538-.57 14.46-.57 5.888 1.707l-2.928.778c-.105.028-.202.08-.284.153s-.146.164-.188.266L.052 8.895a.734.734 0 0 0-.013.518l.974 2.796c.057.162.168.299.315.384s.318.113.483.079l9.256-1.897c.139-.028.267-.1.366-.204s.165-.237.188-.381l.802-4.864c4.412-1.136 10.739-1.136 15.151 0l.802 4.864c.024.143.089.276.188.381s.226.176.366.204l9.256 1.897c.165.034.336.006.483-.079s.258-.221.315-.383l.974-2.796a.734.734 0 0 0-.013-.518zM2.132 11.141l-.5-1.435 8.965-1.92-.276 1.677-8.189 1.678zm9.49-7.084c-.129.036-.245.11-.334.211s-.149.227-.171.362l-.269 1.635L1.86 8.19l1.79-4.403 2.591-.688c8.358-2.22 19.16-2.221 27.518 0l2.591.688 1.79 4.403-8.988-1.925-.269-1.635c-.022-.135-.081-.26-.171-.362s-.205-.175-.334-.211c-4.776-1.351-11.98-1.351-16.756 0zm26.246 7.084-8.189-1.678-.276-1.677 8.965 1.92-.5 1.435z"/><path d="M33.29 13.119a.719.719 0 0 0-.538-.547l-4.775-1.046-.601-4.012c-.025-.17-.109-.324-.236-.436s-.289-.173-.457-.173h-1.869v-.941c0-.397-.314-.718-.701-.718s-.701.322-.701.718v.941h-6.824v-.941c0-.397-.314-.718-.701-.718s-.701.322-.701.718v.941h-1.87c-.168 0-.329.061-.457.173s-.211.266-.236.436l-.601 4.012-4.774 1.046c-.131.029-.252.096-.347.193s-.162.22-.191.354L3.468 28.088a.738.738 0 0 0-.017.156v3.038c0 .191.074.373.205.508s.31.21.496.21h31.695c.186 0 .364-.076.496-.21s.205-.317.205-.508v-3.038a.745.745 0 0 0-.017-.156l-3.242-14.969zm-25.309.761 4.807-1.053c.139-.03.266-.104.364-.21s.161-.24.183-.384l.583-3.892h12.164l.583 3.892c.022.144.085.278.183.384s.224.179.363.21l4.807 1.053 2.955 13.645H5.025L7.98 13.88zm3.816 15.082-.903 1.601H9.828l.903-1.601h1.066zm1.619 0h15.256l-.903 1.601H12.513l.903-1.601zm-8.563 0h4.258l-.903 1.601H4.853v-1.601zm24.536 1.601.903-1.601h4.855v1.601h-5.758z"/><path d="M20 26.161c4.149 0 7.525-3.459 7.525-7.711S24.149 10.739 20 10.739c-4.149 0-7.525 3.459-7.525 7.711s3.376 7.711 7.525 7.711zm0-13.985c3.376 0 6.123 2.814 6.123 6.274S23.376 24.724 20 24.724c-3.376 0-6.123-2.814-6.123-6.274s2.747-6.274 6.123-6.274z"/><path d="M20 21.185c1.472 0 2.669-1.227 2.669-2.735S21.472 15.715 20 15.715s-2.669 1.227-2.669 2.735 1.197 2.735 2.669 2.735zm0-4.034c.699 0 1.267.582 1.267 1.298s-.568 1.298-1.267 1.298-1.267-.582-1.267-1.298.568-1.298 1.267-1.298z"/></symbol><symbol id="icon-shampoos" viewBox="0 0 32 32"><path d="M19.803 9.163V6.26a.696.696 0 0 0-.696-.696h-.522V.694a.696.696 0 0 0-.696-.696h-4.522a.696.696 0 0 0-.696.696v4.87h-.522a.696.696 0 0 0-.696.696v2.903a6.629 6.629 0 0 0-4.174 6.15v15.991c0 .384.311.696.696.696h15.304a.696.696 0 0 0 .696-.696V15.313a6.629 6.629 0 0 0-4.174-6.15zm-5.739-7.772h3.13v4.174h-3.13V1.391zm-1.218 5.566h5.565v1.739h-5.565V6.957zm9.739 23.652H8.672V15.313a5.231 5.231 0 0 1 5.226-5.226h3.461a5.231 5.231 0 0 1 5.226 5.226v15.296z"/><path d="M20.151 14.609h-9.044a.696.696 0 0 0-.696.696v12.87c0 .384.311.696.696.696h9.044a.696.696 0 0 0 .696-.696v-4.372a.696.696 0 1 0-1.392 0v3.676h-7.652V16.001h7.652v2.202a.696.696 0 1 0 1.392 0v-2.898a.696.696 0 0 0-.696-.696z"/><path d="M20.151 20.301a.696.696 0 0 0-.696.696v.07a.696.696 0 1 0 1.392 0v-.07a.696.696 0 0 0-.696-.696zm-5.222 1.646c-1.151 0-2.087.936-2.087 2.087s.936 2.087 2.087 2.087c1.151 0 2.087-.936 2.087-2.087s-.936-2.087-2.087-2.087zm0 2.783a.697.697 0 1 1 .001-1.393.697.697 0 0 1-.001 1.393zm3.655-5.538c0-1.151-.936-2.087-2.087-2.087s-2.087.936-2.087 2.087c0 1.151.936 2.087 2.087 2.087s2.087-.936 2.087-2.087zm-2.087.695a.697.697 0 1 1 .001-1.393.697.697 0 0 1-.001 1.393z"/></symbol><symbol id="icon-sleeping-area" viewBox="0 0 32 32"><path d="M30.908 10.649 16.523.121a.627.627 0 0 0-.738 0L1.4 10.649a.625.625 0 0 0-.135.873l1.88 2.569a.63.63 0 0 0 .653.238.621.621 0 0 0 .221-.103l.567-.415v17.564c0 .345.28.625.625.625h21.92c.345 0 .625-.28.625-.625v-17.54l.534.391c.066.049.141.084.221.103s.163.023.244.011a.627.627 0 0 0 .409-.249l1.88-2.569a.625.625 0 0 0-.135-.873zm-4.403 17.663H11.718a.625.625 0 0 0 0 1.25h14.787v1.188H5.835V13.389h14.636a.625.625 0 0 0 0-1.25H6.869l9.284-6.795 10.351 7.576v15.392zm2.019-15.463L16.523 4.066a.627.627 0 0 0-.738 0L3.784 12.849l-1.142-1.56L16.154 1.4l13.512 9.889-1.142 1.56z"/><path d="M23.336 12.643a.727.727 0 0 0-.036-.118.585.585 0 0 0-.135-.203.625.625 0 1 0 .171.321zM10.079 28.815a.608.608 0 0 0-.094-.225.658.658 0 0 0-.172-.173.635.635 0 0 0-.469-.093.63.63 0 0 0-.502.614.628.628 0 0 0 .278.52.58.58 0 0 0 .224.093.624.624 0 0 0 .736-.736zm13.838-12.509c0-.53-.208-1.028-.585-1.401a1.99 1.99 0 0 0-1.406-.572 2.005 2.005 0 0 0-.487.066 21.53 21.53 0 0 0-3.381 1.172 8.25 8.25 0 0 0-3.808-.001 21.688 21.688 0 0 0-3.397-1.176c-.615-.157-1.249-.016-1.74.387s-.753.997-.719 1.631a21.806 21.806 0 0 0 .513 3.664 6.859 6.859 0 0 0-.402 1.538c-.031.22-.046.441-.046.663 0 2.798 2.44 5.074 5.439 5.074h4.514c1.644 0 3.182-.684 4.219-1.876.951-1.092 1.368-2.464 1.173-3.862a6.896 6.896 0 0 0-.402-1.537 21.535 21.535 0 0 0 .515-3.772zm-1.251.039v.002a20.29 20.29 0 0 1-.526 3.637.619.619 0 0 0 .033.389 5.587 5.587 0 0 1 .393 1.414c.144 1.035-.168 2.054-.878 2.869-.8.919-1.994 1.446-3.277 1.446h-4.514c-2.31 0-4.189-1.715-4.189-3.824 0-.162.012-.327.034-.492.068-.486.2-.961.392-1.413a.629.629 0 0 0 .033-.39 20.058 20.058 0 0 1-.526-3.637.716.716 0 0 1 .264-.598.719.719 0 0 1 .626-.145l.012.003c1.162.297 2.296.696 3.388 1.192.132.06.28.073.421.035a6.953 6.953 0 0 1 1.8-.235c.612 0 1.218.079 1.801.234.14.037.288.025.42-.035a20.475 20.475 0 0 1 3.4-1.196.686.686 0 0 1 .163-.02h.008a.728.728 0 0 1 .721.722l-.001.039z"/><path d="M17.326 23.235a.547.547 0 0 1-.547-.547.625.625 0 0 0-1.25 0v.023a.547.547 0 0 1-.547.547.625.625 0 0 0 0 1.25c.454 0 .869-.169 1.185-.448a1.79 1.79 0 0 0 1.159.425.625.625 0 0 0 0-1.25zm-3.357-2.88-.928-.425a.631.631 0 0 0-.52 0l-.928.425a.624.624 0 1 0 .521 1.137l.668-.306.668.306a.625.625 0 0 0 .521-1.136zm6.747 0-.928-.425a.619.619 0 0 0-.52 0l-.928.425a.625.625 0 1 0 .521 1.137l.668-.306.668.306a.626.626 0 0 0 .521-1.137z"/></symbol><symbol id="icon-toys" viewBox="0 0 32 32"><path d="M27.314 4.686C24.292 1.664 20.274 0 16 0S7.708 1.664 4.686 4.686C1.664 7.708 0 11.726 0 16s1.664 8.292 4.686 11.314C7.708 30.336 11.726 32 16 32s8.292-1.664 11.314-4.686C30.336 24.292 32 20.274 32 16s-1.664-8.292-4.686-11.314zM5.67 26.33a14.503 14.503 0 0 1-4.244-9.326c.382.013.773.049 1.167.108 2.828.42 5.675 1.94 8.014 4.28s3.86 5.186 4.28 8.015c.058.384.093.772.107 1.16a14.545 14.545 0 0 1-9.325-4.237zm10.717 4.266a11.623 11.623 0 0 0-.124-1.394c-.464-3.121-2.123-6.244-4.672-8.794s-5.672-4.209-8.794-4.672a11.739 11.739 0 0 0-1.401-.124c.012-.467.046-.931.101-1.389.496.016 1 .062 1.504.137 3.414.507 6.814 2.306 9.573 5.065s4.558 6.159 5.065 9.573c.074.496.119.995.136 1.496-.461.056-.925.09-1.389.102zm9.943-4.266a14.526 14.526 0 0 1-7.17 3.929 14.673 14.673 0 0 0-.143-1.465c-.551-3.708-2.489-7.384-5.457-10.352s-6.645-4.906-10.353-5.457a14.501 14.501 0 0 0-1.471-.144l-.004.003A14.51 14.51 0 0 1 5.67 5.671a14.523 14.523 0 0 1 6.829-3.849c.017.575.068 1.148.153 1.717.551 3.708 2.489 7.384 5.457 10.353s6.645 4.906 10.353 5.457c.571.085 1.146.137 1.723.154l.006-.01a14.519 14.519 0 0 1-3.861 6.839zm4.127-8.215a13.236 13.236 0 0 1-1.791-.143c-3.415-.507-6.814-2.306-9.573-5.065s-4.558-6.159-5.065-9.573a13.12 13.12 0 0 1-.143-1.783c.462-.067.927-.112 1.393-.135-.001.558.041 1.132.127 1.713.464 3.121 2.123 6.245 4.673 8.794a.695.695 0 1 0 .984-.984c-2.34-2.34-3.86-5.186-4.28-8.015a10.226 10.226 0 0 1-.113-1.511 14.551 14.551 0 0 1 9.662 4.256 14.503 14.503 0 0 1 4.263 9.662 10.165 10.165 0 0 1-1.518-.113.696.696 0 0 0-.204 1.376 11.6 11.6 0 0 0 1.694.128h.027c-.023.466-.067.93-.134 1.392z"/><path d="M24.614 13.747a.7.7 0 0 0-.696.696.7.7 0 0 0 .696.696.7.7 0 0 0 .696-.696.7.7 0 0 0-.696-.696z"/></symbol><symbol id="icon-transportation" viewBox="0 0 33 32"><path d="M29.976 6.779H26.23v-.108c0-1.938-1.576-3.514-3.514-3.514s-3.514 1.576-3.514 3.514v.108h-4.399a2.63 2.63 0 0 0-2.627 2.627v2.968H8.237c-.94 0-1.775.563-2.128 1.434l-.014.039-2.273 6.884c-.021.012-.047.027-.08.043-.13.065-.373.164-.791.266a3.039 3.039 0 0 0-2.325 2.962v3.252c0 1.089.886 1.975 1.975 1.975h2.786c.294 1.576 1.679 2.772 3.338 2.772s3.044-1.197 3.338-2.772h9.826c.294 1.576 1.679 2.772 3.338 2.772s3.044-1.196 3.338-2.772h1.769c1.354 0 2.264-.91 2.264-2.264V10.711c0-3.547-1.837-3.93-2.627-3.93zm-9.523-.107c0-1.248 1.015-2.264 2.264-2.264s2.264 1.016 2.264 2.264v.108h-4.527v-.108zM7.275 14.26a1.039 1.039 0 0 1 .962-.637h3.939v7.084h-7.03l2.129-6.447zm1.452 16.49a2.15 2.15 0 0 1-2.147-2.147l.001-.044.002-.067.001-.01a2.15 2.15 0 0 1 2.143-2.026c1.034 0 1.9.735 2.102 1.711l.001.004c.007.033.013.066.018.1l.001.006c.004.024.006.049.009.074l.004.034.004.058.004.051a.92.92 0 0 1 .001.053l.001.058a2.15 2.15 0 0 1-2.147 2.147zm16.503 0a2.15 2.15 0 0 1-2.145-2.23l.001-.027.005-.061.004-.048.003-.02a2.04 2.04 0 0 1 .03-.193l.001-.006a2.15 2.15 0 0 1 2.937-1.54 2.15 2.15 0 0 1 1.312 1.978 2.15 2.15 0 0 1-2.147 2.147zm5.108-2.772H28.57l-.007-.033a4.327 4.327 0 0 0-.051-.219l-.027-.095-.018-.058c-.011-.033-.021-.065-.033-.097l-.018-.052-.044-.111-.014-.035a3.145 3.145 0 0 0-.065-.144l-.009-.018-.062-.121-.024-.044a2.752 2.752 0 0 0-.053-.092l-.03-.049a3.791 3.791 0 0 0-.179-.26l-.06-.077-.037-.045a2.53 2.53 0 0 0-.102-.116l-.088-.092-.019-.02a3.812 3.812 0 0 0-.113-.108l-.025-.022a2.26 2.26 0 0 0-.092-.079l-.042-.033a5.586 5.586 0 0 0-.08-.063l-.048-.035a3.186 3.186 0 0 0-.209-.141l-.053-.032-.084-.048a1.353 1.353 0 0 0-.052-.029l-.093-.048-.046-.023a4.665 4.665 0 0 0-.124-.056l-.019-.009a3.693 3.693 0 0 0-.146-.058l-.043-.015a1.919 1.919 0 0 0-.107-.036l-.057-.017-.096-.027a2.981 2.981 0 0 0-.38-.078l-.099-.013-.063-.007-.11-.008-.054-.004a3.028 3.028 0 0 0-.33 0l-.054.004-.11.008-.063.007-.099.013-.065.01a4.494 4.494 0 0 0-.253.052l-.063.016c-.032.008-.063.018-.095.027l-.058.017a4.304 4.304 0 0 0-.296.109l-.024.011a2.548 2.548 0 0 0-.258.125l-.054.03-.081.047a4.51 4.51 0 0 0-.186.119l-.075.053a1.682 1.682 0 0 0-.051.038l-.076.06-.045.036-.085.074-.031.028c-.038.035-.075.07-.111.106l-.027.028a2.133 2.133 0 0 0-.118.127l-.064.073-.04.049-.057.072a3.68 3.68 0 0 0-.178.258l-.033.054-.049.085-.028.05c-.019.036-.038.072-.055.108l-.015.03c-.022.047-.044.094-.064.142l-.018.044a3.088 3.088 0 0 0-.04.102l-.02.058a2.48 2.48 0 0 0-.031.092l-.019.063a3.922 3.922 0 0 0-.042.155l-.021.091-.014.066-.007.031h-9.825l-.007-.032-.013-.064a3.493 3.493 0 0 0-.064-.249l-.019-.061a3.472 3.472 0 0 0-.032-.094l-.02-.056-.041-.104-.017-.043c-.02-.048-.042-.095-.064-.142a2.917 2.917 0 0 0-.149-.274l-.033-.053-.05-.078a4.513 4.513 0 0 0-.128-.18l-.057-.072-.04-.049-.063-.073-.039-.044-.079-.083-.028-.029a2.777 2.777 0 0 0-.143-.134l-.084-.073-.046-.037-.075-.059-.051-.038a3.443 3.443 0 0 0-.206-.139l-.055-.034-.081-.047c-.018-.01-.036-.021-.055-.03a3.766 3.766 0 0 0-.089-.046l-.05-.025-.117-.053a3.693 3.693 0 0 0-.171-.069l-.046-.016a3.169 3.169 0 0 0-.162-.052l-.094-.027-.063-.016a3.128 3.128 0 0 0-.317-.062l-.099-.013-.063-.007-.11-.008-.054-.004a3.028 3.028 0 0 0-.33 0l-.054.004-.11.008-.063.007-.098.013-.066.01a4.058 4.058 0 0 0-.159.03l-.093.021-.064.016a1.659 1.659 0 0 0-.094.027l-.059.018a4.098 4.098 0 0 0-.102.035l-.047.016a3.633 3.633 0 0 0-.145.057l-.029.013a5.752 5.752 0 0 0-.114.052l-.052.026a1.8 1.8 0 0 0-.087.045l-.056.031-.079.046a3.642 3.642 0 0 0-.132.083l-.056.038-.073.052-.053.039a4.646 4.646 0 0 0-.073.057l-.048.039-.08.069-.037.032a3.607 3.607 0 0 0-.11.105l-.033.034c-.025.026-.05.051-.074.078a.92.92 0 0 0-.041.047c-.02.023-.041.046-.06.07l-.042.052-.055.069a2.884 2.884 0 0 0-.091.126l-.038.056-.048.075-.035.056-.047.082-.03.053-.052.102-.019.037-.064.14-.02.049a2.792 2.792 0 0 0-.038.097l-.021.06c-.01.03-.021.059-.03.089l-.02.065a2.949 2.949 0 0 0-.063.244l-.014.068c-.002.01-.005.02-.006.031H2.604a.726.726 0 0 1-.725-.725v-3.252a1.79 1.79 0 0 1 1.371-1.747c.356-.087.662-.186.912-.296h22.7a.625.625 0 0 0 0-1.25H13.429V9.408c0-.759.618-1.377 1.377-1.377h15.172c1.198 0 1.377 1.679 1.377 2.68v16.254c0 .883-.636 1.014-1.014 1.014z"/><path d="M27.54 13.235c0-.821-.576-1.509-1.345-1.682a1.864 1.864 0 0 0-.526-1.491 1.962 1.962 0 0 0-1.4-.591 1.93 1.93 0 0 0-1.551.783 1.933 1.933 0 0 0-1.553-.783c-.52 0-1.026.213-1.39.584a1.883 1.883 0 0 0-.537 1.5 1.726 1.726 0 0 0-1.345 1.682c0 .694.413 1.293 1.005 1.566a2.96 2.96 0 0 0-.661 1.862 2.964 2.964 0 0 0 2.96 2.96c.538 0 1.062-.147 1.519-.42.459.275.984.42 1.519.42a2.964 2.964 0 0 0 2.96-2.96c0-.691-.244-1.345-.661-1.862a1.725 1.725 0 0 0 1.005-1.566zm-3.271-2.515c.189 0 .372.077.504.212a.627.627 0 0 1 .182.455.72.72 0 0 1-.692.703.683.683 0 0 1-.288-.063l-.033-.016a.679.679 0 0 1-.356-.604.69.69 0 0 1 .685-.688zm-3.602.208a.699.699 0 0 1 .498-.209.688.688 0 0 1 .632.955.7.7 0 0 1-.304.338l-.061.029a.646.646 0 0 1-.257.049.715.715 0 0 1-.695-.697.643.643 0 0 1 .187-.464zm-1.524 2.307a.475.475 0 0 1 .948 0 .455.455 0 0 1-.026.153 1.648 1.648 0 0 0-.045.095.475.475 0 0 1-.877-.248zm5.093 5.138c-.408 0-.802-.146-1.112-.412a.627.627 0 0 0-.814 0 1.712 1.712 0 1 1-1.701-2.904.62.62 0 0 0 .406-.523c.018-.172.061-.34.129-.499a1.73 1.73 0 0 0 .062-.13 1.71 1.71 0 0 1 2.199-.762c.027.013.053.026.081.038.317.158.576.412.742.724.019.044.04.087.062.13.068.159.111.327.129.499a.625.625 0 0 0 .406.523 1.712 1.712 0 0 1-.589 3.316zm1.58-4.664a.475.475 0 0 1-.403-.226l-.045-.095a.475.475 0 1 1 .922-.153.475.475 0 0 1-.474.474zm4.168 7.505a.608.608 0 0 0-.093-.225.646.646 0 0 0-.173-.173.635.635 0 0 0-.469-.093.608.608 0 0 0-.225.093.646.646 0 0 0-.173.173.688.688 0 0 0-.093.225.623.623 0 0 0 .613.747.623.623 0 0 0 .613-.747zM22.716 0a.625.625 0 0 0-.625.625v1.046a.625.625 0 0 0 1.25 0V.625A.625.625 0 0 0 22.716 0zm-2.633 2.43-.872-.685a.623.623 0 0 0-.693-.053.624.624 0 0 0-.079 1.036l.872.685a.622.622 0 0 0 .878-.106.625.625 0 0 0-.106-.878zm7.016-.579a.625.625 0 0 0-.878-.106l-.872.685a.626.626 0 0 0 .772.984l.872-.685a.625.625 0 0 0 .106-.878z"/></symbol><symbol id="icon-vitamins" viewBox="0 0 32 32"><path d="M28.966 18.879c-1.747-.594-4.056-.922-6.504-.922-.153 0-.305.001-.457.004-2.277.038-4.409.361-6.047.918-.263.089-.522.189-.776.299V9.191c0-4.185-3.405-7.591-7.591-7.591S0 5.005 0 9.191v13.703c0 4.185 3.405 7.591 7.591 7.591a7.59 7.59 0 0 0 3.779-1.006 7.63 7.63 0 0 0 1.919-1.571c.399.56 1.188 1.152 2.669 1.656 1.747.594 4.056.922 6.504.922s4.757-.327 6.504-.922C31.474 28.71 32 27.605 32 26.827v-5.21c0-.777-.526-1.883-3.034-2.737zm-14.792 2.737c0-.023.002-.046.006-.069l.001-.006a.845.845 0 0 1 .214-.386l.002-.003.061-.065.044-.044.018-.017a2.831 2.831 0 0 1 .384-.293c.342-.222.817-.452 1.456-.669 1.62-.552 3.787-.855 6.101-.855 2.108 0 4.093.253 5.655.715L14.74 22.389c-.402-.296-.567-.57-.568-.77v-.001zm-.243-1.728c-.482.369-.75.744-.887 1.092a1.758 1.758 0 0 0-.118.533l-.001.016c-.002.029-.002.058-.002.086v4.71a6.297 6.297 0 0 1-5.333 2.909 6.348 6.348 0 0 1-6.341-6.341v-6.227h1.25v3.375a.625.625 0 0 0 1.25 0v-3.375H13.93v3.221zm0-4.471H3.75V9.19c0-2.118 1.723-3.841 3.841-3.841s3.841 1.723 3.841 3.841a.625.625 0 0 0 1.25 0c0-2.807-2.284-5.091-5.091-5.091S2.5 6.383 2.5 9.19v6.227H1.25V9.19c0-3.496 2.844-6.341 6.341-6.341s6.341 2.844 6.341 6.341v6.227zM30.75 26.826c0 .373-.573 1.004-2.187 1.553-1.62.551-3.787.855-6.101.855s-4.481-.304-6.101-.855c-1.614-.549-2.187-1.18-2.187-1.553v-3.31c.438.291 1.018.576 1.784.836 1.747.594 4.056.922 6.504.922s4.757-.327 6.504-.922c.766-.261 1.346-.545 1.784-.836v3.31zm-2.187-3.657c-1.62.551-3.787.855-6.101.855-2.139 0-4.151-.26-5.723-.735l13.407-2.471c.428.306.603.591.603.797 0 .373-.573 1.004-2.187 1.553z"/><path d="M3.567 22.081a.646.646 0 0 0-.32-.172.626.626 0 1 0 .321.172z"/></symbol><symbol id="icon-pagination-right" viewBox="0 0 29 32"><path d="M26.301 17.71.023 31.375v-3.892L21.87 16.091.023 4.727V.835L26.301 14.5v3.21z"/></symbol><symbol id="icon-pagination-left" viewBox="0 0 29 32"><path d="M29.04 31.375 2.762 17.71V14.5L29.04.835v3.892L7.193 16.091 29.04 27.483v3.892z"/></symbol><symbol id="icon-pagination-double-right" viewBox="0 0 73 32"><path d="M29.107 17.71 2.828 31.375v-3.892l21.847-11.392L2.828 4.727V.835L29.107 14.5v3.21zm40.934 0L43.763 31.375v-3.892l21.846-11.392L43.763 4.727V.835L70.041 14.5v3.21z"/></symbol><symbol id="icon-pagination-double-left" viewBox="0 0 73 32"><path d="M28.936 31.375 2.658 17.71V14.5L28.936.835v3.892L7.089 16.091l21.847 11.392v3.892zm40.935 0L43.593 17.71V14.5L69.871.835v3.892L48.024 16.091l21.847 11.392v3.892z"/></symbol><symbol id="icon-cross" viewBox="0 0 32 32"><path d="M19.803 16 31.212 4.591A2.69 2.69 0 0 0 27.409.788L16 12.197 4.591.788A2.69 2.69 0 0 0 .788 4.591L12.197 16 .788 27.409a2.69 2.69 0 0 0 3.803 3.803L16 19.803l11.409 11.409a2.69 2.69 0 0 0 3.803-3.803L19.803 16z"/></symbol></defs></svg>